HIERARCHY
ROOT reference
{
  OFFSET 0 0 0
  CHANNELS 6 Xposition Yposition Zposition Zrotation Xrotation Yrotation
  JOINT Hips
  {
    OFFSET 387.421 88.6843 214.036
    CHANNELS 3 Zrotation Xrotation Yrotation
    JOINT RightUpLeg
    {
      OFFSET -9.26407 -1.54033 -0.0169218
      CHANNELS 3 Zrotation Xrotation Yrotation
      JOINT RightLeg
      {
        OFFSET 0.0262756 -41.889 0.0389421
        CHANNELS 3 Zrotation Xrotation Yrotation
        JOINT RightFoot
        {
          OFFSET -0.025595 -42.7244 0.117519
          CHANNELS 3 Zrotation Xrotation Yrotation
          End Site
          {
            OFFSET 0 -7.69 17.5
          }
        }
      }
    }
    JOINT LeftUpLeg
    {
      OFFSET 9.28488 -1.63184 0.00456132
      CHANNELS 3 Zrotation Xrotation Yrotation
      JOINT LeftLeg
      {
        OFFSET -0.00133996 -41.8929 0.0117795
        CHANNELS 3 Zrotation Xrotation Yrotation
        JOINT LeftFoot
        {
          OFFSET 0.253805 -40.8902 0.809143
          CHANNELS 3 Zrotation Xrotation Yrotation
          End Site
          {
            OFFSET 0 -7.69 17.5
          }
        }
      }
    }
    JOINT Spine
    {
      OFFSET 0.04218 14.2944 0.0529257
      CHANNELS 3 Zrotation Xrotation Yrotation
      JOINT Spine1
      {
        OFFSET 0.022284 9.72228 0.00997239
        CHANNELS 3 Zrotation Xrotation Yrotation
        JOINT Spine2
        {
          OFFSET 0.0397412 10.1199 -0.0103674
          CHANNELS 3 Zrotation Xrotation Yrotation
          JOINT Spine3
          {
            OFFSET 0.0389473 9.71765 -0.00772733
            CHANNELS 3 Zrotation Xrotation Yrotation
            JOINT Neck
            {
              OFFSET 0.0437972 10.3765 0.0320322
              CHANNELS 3 Zrotation Xrotation Yrotation
              JOINT Head
              {
                OFFSET 0.0431994 9.46781 0.0291763
                CHANNELS 3 Zrotation Xrotation Yrotation
                End Site
                {
                  OFFSET 0 15.95 0
                }
              }
            }
            JOINT RightShoulder
            {
              OFFSET -3.17206 6.93005 0.0018626
              CHANNELS 3 Zrotation Xrotation Yrotation
              JOINT RightArm
              {
                OFFSET -12.781 0.0116363 0.0199633
                CHANNELS 3 Zrotation Xrotation Yrotation
                JOINT RightForeArm
                {
                  OFFSET -26.5135 -0.0113607 0.0486864
                  CHANNELS 3 Zrotation Xrotation Yrotation
                  JOINT RightHand
                  {
                    OFFSET -25.9857 -0.0984063 0.163753
                    CHANNELS 3 Zrotation Xrotation Yrotation
                    JOINT RightHandThumb1
                    {
                      OFFSET -2.48905 0.190105 3.12053
                      CHANNELS 3 Zrotation Xrotation Yrotation
                      JOINT RightHandThumb2
                      {
                        OFFSET -3.68274 0 0
                        CHANNELS 3 Zrotation Xrotation Yrotation
                        JOINT RightHandThumb3
                        {
                          OFFSET -2.55832 0 0
                          CHANNELS 3 Zrotation Xrotation Yrotation
                          End Site
                          {
                            OFFSET -2.194 0 0
                          }
                        }
                      }
                    }
                    JOINT RightInHandIndex
                    {
                      OFFSET -3.22368 0.508421 1.97842
                      CHANNELS 3 Zrotation Xrotation Yrotation
                      JOINT RightHandIndex1
                      {
                        OFFSET -5.21684 -0.091368 0.999158
                        CHANNELS 3 Zrotation Xrotation Yrotation
                        JOINT RightHandIndex2
                        {
                          OFFSET -3.61937 0 0
                          CHANNELS 3 Zrotation Xrotation Yrotation
                          JOINT RightHandIndex3
                          {
                            OFFSET -2.0521 0 0
                            CHANNELS 3 Zrotation Xrotation Yrotation
                            End Site
                            {
                              OFFSET -1.805 0 0
                            }
                          }
                        }
                      }
                    }
                    JOINT RightInHandMiddle
                    {
                      OFFSET -3.38211 0.517263 0.756737
                      CHANNELS 3 Zrotation Xrotation Yrotation
                      JOINT RightHandMiddle1
                      {
                        OFFSET -5.17411 -0.084 0.313895
                        CHANNELS 3 Zrotation Xrotation Yrotation
                        JOINT RightHandMiddle2
                        {
                          OFFSET -3.94947 0 0
                          CHANNELS 3 Zrotation Xrotation Yrotation
                          JOINT RightHandMiddle3
                          {
                            OFFSET -2.47579 0 0
                            CHANNELS 3 Zrotation Xrotation Yrotation
                            End Site
                            {
                              OFFSET -1.975 0 0
                            }
                          }
                        }
                      }
                    }
                    JOINT RightInHandRing
                    {
                      OFFSET -3.36516 0.537895 -0.128947
                      CHANNELS 3 Zrotation Xrotation Yrotation
                      JOINT RightHandRing1
                      {
                        OFFSET -4.63474 -0.022105 -0.478947
                        CHANNELS 3 Zrotation Xrotation Yrotation
                        JOINT RightHandRing2
                        {
                          OFFSET -3.44238 0 0
                          CHANNELS 3 Zrotation Xrotation Yrotation
                          JOINT RightHandRing3
                          {
                            OFFSET -2.3881 0 0
                            CHANNELS 3 Zrotation Xrotation Yrotation
                            End Site
                            {
                              OFFSET -1.857 0 0
                            }
                          }
                        }
                      }
                    }
                    JOINT RightInHandPinky
                    {
                      OFFSET -3.16105 0.469368 -1.20179
                      CHANNELS 3 Zrotation Xrotation Yrotation
                      JOINT RightHandPinky1
                      {
                        OFFSET -4.14105 -0.022105 -1.09053
                        CHANNELS 3 Zrotation Xrotation Yrotation
                        JOINT RightHandPinky2
                        {
                          OFFSET -2.75653 0 0
                          CHANNELS 3 Zrotation Xrotation Yrotation
                          JOINT RightHandPinky3
                          {
                            OFFSET -1.74189 0 0
                            CHANNELS 3 Zrotation Xrotation Yrotation
                            End Site
                            {
                              OFFSET -1.645 0 0
                            }
                          }
                        }
                      }
                    }
                  }
                }
              }
            }
            JOINT LeftShoulder
            {
              OFFSET 3.23848 6.90919 -0.0119143
              CHANNELS 3 Zrotation Xrotation Yrotation
              JOINT LeftArm
              {
                OFFSET 12.8241 -0.0554782 -0.0520121
                CHANNELS 3 Zrotation Xrotation Yrotation
                JOINT LeftForeArm
                {
                  OFFSET 26.4865 -0.0658343 -0.0244543
                  CHANNELS 3 Zrotation Xrotation Yrotation
                  JOINT LeftHand
                  {
                    OFFSET 25.985 -0.0475988 -0.0124738
                    CHANNELS 3 Zrotation Xrotation Yrotation
                    JOINT LeftHandThumb1
                    {
                      OFFSET 2.48905 0.190105 3.12053
                      CHANNELS 3 Zrotation Xrotation Yrotation
                      JOINT LeftHandThumb2
                      {
                        OFFSET 3.68274 0 0
                        CHANNELS 3 Zrotation Xrotation Yrotation
                        JOINT LeftHandThumb3
                        {
                          OFFSET 2.55832 0 0
                          CHANNELS 3 Zrotation Xrotation Yrotation
                          End Site
                          {
                            OFFSET 2.194 0 0
                          }
                        }
                      }
                    }
                    JOINT LeftInHandIndex
                    {
                      OFFSET 3.22368 0.508421 1.97842
                      CHANNELS 3 Zrotation Xrotation Yrotation
                      JOINT LeftHandIndex1
                      {
                        OFFSET 5.21684 -0.091368 0.999158
                        CHANNELS 3 Zrotation Xrotation Yrotation
                        JOINT LeftHandIndex2
                        {
                          OFFSET 3.61937 0 0
                          CHANNELS 3 Zrotation Xrotation Yrotation
                          JOINT LeftHandIndex3
                          {
                            OFFSET 2.0521 0 0
                            CHANNELS 3 Zrotation Xrotation Yrotation
                            End Site
                            {
                              OFFSET 1.805 0 0
                            }
                          }
                        }
                      }
                    }
                    JOINT LeftInHandMiddle
                    {
                      OFFSET 3.38211 0.517263 0.756737
                      CHANNELS 3 Zrotation Xrotation Yrotation
                      JOINT LeftHandMiddle1
                      {
                        OFFSET 5.17411 -0.084 0.313895
                        CHANNELS 3 Zrotation Xrotation Yrotation
                        JOINT LeftHandMiddle2
                        {
                          OFFSET 3.94947 0 0
                          CHANNELS 3 Zrotation Xrotation Yrotation
                          JOINT LeftHandMiddle3
                          {
                            OFFSET 2.47579 0 0
                            CHANNELS 3 Zrotation Xrotation Yrotation
                            End Site
                            {
                              OFFSET 1.975 0 0
                            }
                          }
                        }
                      }
                    }
                    JOINT LeftInHandRing
                    {
                      OFFSET 3.36516 0.537895 -0.128947
                      CHANNELS 3 Zrotation Xrotation Yrotation
                      JOINT LeftHandRing1
                      {
                        OFFSET 4.63474 -0.022105 -0.478947
                        CHANNELS 3 Zrotation Xrotation Yrotation
                        JOINT LeftHandRing2
                        {
                          OFFSET 3.44238 0 0
                          CHANNELS 3 Zrotation Xrotation Yrotation
                          JOINT LeftHandRing3
                          {
                            OFFSET 2.3881 0 0
                            CHANNELS 3 Zrotation Xrotation Yrotation
                            End Site
                            {
                              OFFSET 1.857 0 0
                            }
                          }
                        }
                      }
                    }
                    JOINT LeftInHandPinky
                    {
                      OFFSET 3.16105 0.469368 -1.20179
                      CHANNELS 3 Zrotation Xrotation Yrotation
                      JOINT LeftHandPinky1
                      {
                        OFFSET 4.14105 -0.022105 -1.09053
                        CHANNELS 3 Zrotation Xrotation Yrotation
                        JOINT LeftHandPinky2
                        {
                          OFFSET 2.75653 0 0
                          CHANNELS 3 Zrotation Xrotation Yrotation
                          JOINT LeftHandPinky3
                          {
                            OFFSET 1.74189 0 0
                            CHANNELS 3 Zrotation Xrotation Yrotation
                            End Site
                            {
                              OFFSET 1.645 0 0
                            }
                          }
                        }
                      }
                    }
                  }
                }
              }
            }
          }
        }
      }
    }
  }
}
MOTION
Frames:	4
Frame Time:	0.00833333
0 0 0 0 0 -0 25.9048 0.821673 -126.549 36.6094 -38.7507 35.2662 -7.40112 16.2795 -2.80996 4.38002 8.50374 48.9803 36.4667 -20.4715 25.1685 -23.8149 43.1616 26.9658 -4.40975 -28.5402 1.77994 -5.20208 -4.80346 -11.5009 -1.21103 -1.37484 -2.76821 -2.031 -2.30429 -4.50252 -0.591366 -0.301995 2.56939 -1.12499 -4.63948 29.116 -10.0227 5.0757 31.099 -0.835821 -0.148562 5.29022 8.72185 -64.2801 -20.9747 38.8925 2.54276 119.601 18.1754 -22.9596 3.42568 28.184 10.7294 19.1592 -6.55747e-16 7.15625e-15 -10 -1.37763e-14 0 -10 -3.97569e-16 -6.36111e-15 -7.95139e-16 19.9818 0.871897 2.3964 24 -1.19271e-14 1.59028e-15 20 -1.04362e-14 -4.45278e-14 -3.97569e-16 -6.36111e-15 -7.95139e-16 20 -4.77083e-15 1.43125e-14 24 1.59028e-15 6.36111e-15 20 -5.76476e-15 -3.18055e-14 -3.97569e-16 -6.36111e-15 -7.95139e-16 19.9748 -1.02565 -2.81938 24 -3.18055e-15 -0 20 -2.38542e-15 -2.70347e-14 -3.97569e-16 -6.36111e-15 -7.95139e-16 19.7815 -3.00948 -8.30515 24 1.59028e-15 -1.59028e-15 20 1.59028e-15 -1.27222e-14 3.7849 -22.9954 -50.9423 -15.3641 25.0487 -114.922 37.2209 -14.4653 -35.2429 -31.3721 -16.1105 -12.9905 -28.184 10.7294 -19.1592 1.09109e-14 7.95139e-15 10 1.24035e-14 -4.77083e-15 10 1.37286e-15 3.57812e-15 1.98785e-16 -19.9818 0.871897 -2.3964 -24 -5.06901e-15 -5.1684e-15 -20 -1.98785e-15 1.31198e-14 1.37286e-15 3.57812e-15 1.98785e-16 -20 7.15625e-15 -6.4605e-15 -24 4.77083e-15 3.97569e-16 -20 -4.57205e-15 1.27222e-14 1.37286e-15 3.57812e-15 1.98785e-16 -19.9748 -1.02565 2.81938 -24 7.95139e-16 -1.98785e-16 -20 -1.59028e-15 1.20265e-14 1.37286e-15 3.57812e-15 1.98785e-16 -19.7815 -3.00948 8.30515 -24 3.18055e-15 1.11319e-14 -20 -1.59028e-15 -3.97569e-15 
0 0 0 0 0 -0 25.697 0.834921 -127.388 36.8664 -38.1917 35.6972 -7.35883 16.2522 -2.76408 4.28918 8.57669 49.2 36.5124 -19.8838 25.4437 -23.9678 43.1739 27.0986 -4.17292 -28.5367 2.06607 -5.27164 -4.83976 -11.2047 -1.22991 -1.38376 -2.69157 -2.06219 -2.32011 -4.37814 -0.586121 -0.292089 2.5741 -1.10584 -4.55507 29.2359 -9.96162 5.2277 31.0865 -0.878195 -0.093608 5.21327 8.25482 -64.2112 -21.3809 38.5753 2.48677 119.843 17.987 -22.8725 3.30006 28.184 10.7294 19.1592 3.42601e-15 3.97569e-15 -10 -1.41604e-14 3.97569e-16 -10 8.34896e-15 -4.77083e-15 -3.97569e-15 19.9818 0.871897 2.3964 24 -9.54166e-15 6.36111e-15 20 -8.74653e-15 -4.92986e-14 8.34896e-15 -4.77083e-15 -3.97569e-15 20 -3.18055e-15 1.27222e-14 24 -7.95139e-16 7.95139e-15 20 -5.36719e-15 -3.02153e-14 8.34896e-15 -4.77083e-15 -3.97569e-15 19.9748 -1.02565 -2.81938 24 -1.59028e-15 3.18055e-15 20 -3.97569e-15 -2.8625e-14 8.34896e-15 -4.77083e-15 -3.97569e-15 19.7815 -3.00948 -8.30515 24 -3.18055e-15 -2.38542e-15 20 3.18055e-15 -1.11319e-14 3.98053 -22.8652 -50.6088 -15.2563 24.8283 -115.221 37.1651 -14.6162 -35.3822 -31.3152 -15.3047 -15.2738 -28.184 10.7294 -19.1592 7.47941e-15 7.95139e-15 10 1.06029e-14 -3.18055e-15 10 1.30452e-16 3.18055e-15 -0 -19.9818 0.871897 -2.3964 -24 -4.77083e-15 -5.56597e-15 -20 -1.59028e-15 1.23246e-14 1.30452e-16 3.18055e-15 -0 -20 6.4605e-15 -6.36111e-15 -24 4.57205e-15 -1.19271e-15 -20 -3.77691e-15 1.35174e-14 1.30452e-16 3.18055e-15 -0 -19.9748 -1.02565 2.81938 -24 -3.97569e-16 4.96962e-17 -20 -2.78299e-15 1.27222e-14 1.30452e-16 3.18055e-15 -0 -19.7815 -3.00948 8.30515 -24 6.36111e-15 1.19271e-14 -20 0 -7.15625e-15 
0 0 0 0 0 -0 25.6079 0.825187 -127.785 36.9343 -37.9779 35.7063 -7.33747 16.2103 -2.68319 4.21011 8.64175 49.4284 36.5012 -19.6516 25.3763 -24.147 43.1618 27.2627 -3.92847 -28.5269 2.3824 -5.31868 -4.91045 -11.1796 -1.2405 -1.4029 -2.68283 -2.07995 -2.35183 -4.36301 -0.582207 -0.283269 2.57873 -1.08883 -4.48521 29.377 -9.92016 5.38658 31.062 -0.928207 -0.028424 5.09568 7.91503 -64.1634 -21.6349 38.2364 2.41992 120.046 17.9263 -22.8449 3.26254 28.184 10.7294 19.1592 -6.64418e-15 2.38542e-15 -10 -1.15282e-14 -5.56597e-15 -10 -5.26779e-15 -1.59028e-15 -1.59028e-15 19.9818 0.871897 2.3964 24 -1.19271e-14 -0 20 -1.0138e-14 -5.08889e-14 -5.26779e-15 -1.59028e-15 -1.59028e-15 20 0 1.03368e-14 24 -3.18055e-15 4.77083e-15 20 -4.17448e-15 -3.02153e-14 -5.26779e-15 -1.59028e-15 -1.59028e-15 19.9748 -1.02565 -2.81938 24 -3.97569e-15 -0 20 -4.77083e-15 -2.70347e-14 -5.26779e-15 -1.59028e-15 -1.59028e-15 19.7815 -3.00948 -8.30515 24 3.18055e-15 2.38542e-15 20 3.18055e-15 -1.35174e-14 4.17584 -22.7174 -50.2193 -15.1173 24.5873 -115.591 37.1239 -14.8107 -35.647 -31.2698 -15.1605 -15.6136 -28.184 10.7294 -19.1592 1.8099e-14 9.54166e-15 10 1.99609e-14 -1.59028e-15 10 -2.65874e-15 3.37934e-15 -0 -19.9818 0.871897 -2.3964 -24 -4.37326e-15 -7.15625e-15 -20 -2.38542e-15 1.27222e-14 -2.65874e-15 3.37934e-15 -0 -20 6.5102e-15 -6.75868e-15 -24 4.77083e-15 -7.95139e-16 -20 -4.37326e-15 1.19271e-14 -2.65874e-15 3.37934e-15 -0 -19.9748 -1.02565 2.81938 -24 -6.95746e-16 -0 -20 -3.27995e-15 1.27222e-14 -2.65874e-15 3.37934e-15 -0 -19.7815 -3.00948 8.30515 -24 5.56597e-15 1.31198e-14 -20 2.38542e-15 -6.75868e-15 
0 0 0 0 0 -0 25.6272 0.84797 -128.117 37.0994 -37.8677 35.7017 -7.3254 16.1777 -2.59646 4.15705 8.71111 49.6528 36.5655 -19.489 25.3247 -24.2654 43.1383 27.3697 -3.69871 -28.4916 2.69825 -5.32345 -5.00471 -11.2134 -1.23962 -1.42638 -2.68935 -2.0789 -2.38973 -4.37295 -0.577713 -0.275981 2.58401 -1.06762 -4.42981 29.5776 -9.85881 5.52047 31.0097 -0.931391 0.029987 5.00542 7.63948 -64.1206 -21.8052 37.862 2.2973 120.217 18.0509 -20.7839 3.10307 28.184 10.7294 19.1592 7.85576e-17 1.59028e-15 -10 -1.44886e-14 -3.18055e-15 -10 -6.06293e-15 -1.59028e-15 -1.59028e-15 19.9818 0.871897 2.3964 24 -1.03368e-14 -0 20 -9.93923e-15 -4.92986e-14 -6.06293e-15 -1.59028e-15 -1.59028e-15 20 7.95139e-16 1.11319e-14 24 -7.95139e-16 6.36111e-15 20 -5.55355e-15 -3.18055e-14 -6.06293e-15 -1.59028e-15 -1.59028e-15 19.9748 -1.02565 -2.81938 24 -5.56597e-15 -0 20 -5.96354e-15 -2.62396e-14 -6.06293e-15 -1.59028e-15 -1.59028e-15 19.7815 -3.00948 -8.30515 24 -1.59028e-15 -3.97569e-16 20 -1.59028e-15 -1.19271e-14 4.14342 -22.6591 -50.1906 -15.171 24.7206 -115.255 37.1621 -14.9998 -36.2452 -31.2261 -15.0996 -15.768 -28.184 10.7294 -19.1592 3.40856e-15 1.27222e-14 10 8.29827e-15 1.59028e-15 10 -1.64619e-15 2.88238e-15 -0 -19.9818 0.871897 -2.3964 -24 -1.59028e-15 -9.54166e-15 -20 -1.59028e-15 1.07344e-14 -1.64619e-15 2.88238e-15 -0 -20 6.55989e-15 -7.15625e-15 -24 4.77083e-15 -1.19271e-15 -20 -3.18055e-15 1.27222e-14 -1.64619e-15 2.88238e-15 -0 -19.9748 -1.02565 2.81938 -24 -7.95139e-16 -0 -20 -3.08116e-15 1.27222e-14 -1.64619e-15 2.88238e-15 -0 -19.7815 -3.00948 8.30515 -24 6.36111e-15 1.27222e-14 -20 0 -5.96354e-15 
